<svg width="46" height="15" viewBox="0 0 46 15" version="1.1" xmlns="http://www.w3.org/2000/svg" xmlns:xlink="http://www.w3.org/1999/xlink">
<title>Vector</title>
<desc>Created using Figma</desc>
<g id="Canvas" transform="translate(-5880 -3534)">
<rect x="5880" y="3534" width="46" height="15" fill="#E5E5E5"/>
<clipPath id="clip-0" clip-rule="evenodd">
<path d="M 4979 3352L 6419 3352L 6419 4216L 4979 4216L 4979 3352Z" fill="#FFFFFF"/>
</clipPath>
<g id="TL_PAGE_PRODUCT_DT" clip-path="url(#clip-0)">
<path d="M 4979 3352L 6419 3352L 6419 4216L 4979 4216L 4979 3352Z" fill="#FFFFFF"/>
<g id="tl_tag">
<g id="tl_tag_new-in">
<g id="Group">
<g id="Vector">
<use xlink:href="#path0_fill" transform="translate(5884.92 3538.28)"/>
</g>
<g id="Vector">
<use xlink:href="#path1_fill" transform="translate(5892.21 3538.28)"/>
</g>
<g id="Vector">
<use xlink:href="#path2_fill" transform="translate(5897.99 3538.22)"/>
</g>
<g id="Vector">
<use xlink:href="#path3_fill" transform="translate(5911.59 3538.28)"/>
</g>
<g id="Vector">
<use xlink:href="#path4_fill" transform="translate(5914.48 3538.28)"/>
</g>
</g>
<g id="Group">
<g id="Vector">
<use xlink:href="#path5_fill" transform="translate(5880 3534.72)"/>
</g>
</g>
</g>
</g>
</g>
</g>
<defs>
<path id="path0_fill" d="M 0 5.74856e-08L 0.636395 5.74856e-08L 4.45476 5.06336L 4.45476 5.74856e-08L 5.14901 5.74856e-08L 5.14901 6.3292L 4.62832 6.3292L 0.694248 1.085L 0.694248 6.26892L 0 6.26892L 0 5.74856e-08Z"/>
<path id="path1_fill" d="M 2.20696e-07 5.74856e-08L 4.39691 5.74856e-08L 4.39691 0.663059L 0.694248 0.663059L 0.694248 2.83307L 3.99193 2.83307L 3.99193 3.49613L 0.694248 3.49613L 0.694248 5.72641L 4.45476 5.72641L 4.45476 6.38947L 2.20696e-07 6.38947L 2.20696e-07 5.74856e-08Z"/>
<path id="path2_fill" d="M 2.20696e-07 0.0602781L 0.752104 0.0602781L 2.48773 5.30447L 4.16549 1.14971e-07L 4.74403 1.14971e-07L 6.4218 5.30447L 8.15742 0.0602781L 8.85167 0.0602781L 6.65322 6.44975L 6.07468 6.44975L 4.39691 1.32612L 2.71914 6.44975L 2.1406 6.44975L 2.20696e-07 0.0602781Z"/>
<path id="path3_fill" d="M -8.82783e-07 5.74856e-08L 0.694248 5.74856e-08L 0.694248 6.3292L -8.82783e-07 6.3292L -8.82783e-07 5.74856e-08Z"/>
<path id="path4_fill" d="M -8.82783e-07 5.74856e-08L 0.636395 5.74856e-08L 4.45476 5.06336L 4.45476 5.74856e-08L 5.14901 5.74856e-08L 5.14901 6.3292L 4.62832 6.3292L 0.694248 1.14528L 0.694248 6.3292L -8.82783e-07 6.3292L -8.82783e-07 5.74856e-08Z"/>
<path id="path5_fill" d="M 45.2419 13.3817L 0 13.3817L 0 0L 45.2419 0L 45.2419 13.3817ZM 0.578541 12.7789L 44.6633 12.7789L 44.6633 0.60278L 0.578541 0.60278L 0.578541 12.7789Z"/>
</defs>
</svg>
