<svg width="18" height="19" viewBox="0 0 18 19" version="1.1" xmlns="http://www.w3.org/2000/svg" xmlns:xlink="http://www.w3.org/1999/xlink">
<title>Group</title>
<desc>Created using Figma</desc>
<g id="Canvas" transform="translate(-6344 -3441)">
<g id="Group">
<g id="tl_icon_search">
<use xlink:href="#path0_fill" transform="translate(6344 3441.96)"/>
</g>
</g>
</g>
<defs>
<path id="path0_fill" fill-rule="evenodd" d="M 0.728516 7.19664C 0.728516 3.64555 3.50653 0.757324 6.92213 0.757324C 10.337 0.757324 13.1157 3.64555 13.1157 7.19664C 13.1157 10.7474 10.337 13.636 6.92213 13.636C 3.50653 13.636 0.728516 10.7474 0.728516 7.19664ZM 17.2095 16.9555L 12.2462 11.7946C 13.2441 10.5476 13.8446 8.94535 13.8446 7.19688C 13.8446 3.22155 10.7456 0 6.92228 0C 3.09972 0 0 3.22155 0 7.19688C 0 11.1707 3.09972 14.3938 6.92228 14.3938C 8.60439 14.3938 10.1451 13.7692 11.3449 12.7317L 16.3082 17.8926L 17.2095 16.9555Z"/>
</defs>
</svg>
