<svg width="18" height="19" viewBox="0 0 18 19" version="1.1" xmlns="http://www.w3.org/2000/svg" xmlns:xlink="http://www.w3.org/1999/xlink">
<title>tl_icon_wishlist_line</title>
<desc>Created using Figma</desc>
<g id="Canvas" transform="translate(-6312 -3399)">
<rect x="6312" y="3399" width="18" height="19" fill="#E5E5E5"/>
<clipPath id="clip-0" clip-rule="evenodd">
<path d="M 4979 3352L 6419 3352L 6419 4216L 4979 4216L 4979 3352Z" fill="#FFFFFF"/>
</clipPath>
<g id="TL_PAGE_PRODUCT_DT" clip-path="url(#clip-0)">
<path d="M 4979 3352L 6419 3352L 6419 4216L 4979 4216L 4979 3352Z" fill="#FFFFFF"/>
<g id="Group">
<g id="Group">
<g id="Group">
<g id="tl_icon_wishlist_line">
<g id="tl_icon_wishlist">
<use xlink:href="#path0_fill" transform="translate(6312 3399.7)"/>
</g>
</g>
</g>
</g>
</g>
</g>
</g>
<defs>
<path id="path0_fill" fill-rule="evenodd" d="M 9 0L 6.88633 6.84227L 0 6.84227L 5.58 11.0519L 3.43733 17.8924L 9 13.6491L 14.562 17.8924L 12.42 11.0519L 18 6.84227L 11.1133 6.84227L 9 0ZM 6.21288 11.2716L 6.36655 10.7826L 5.96822 10.4819L 2.07422 7.54404L 6.88622 7.54404L 7.37022 7.54404L 7.51989 7.05954L 8.99988 2.26929L 10.4792 7.05954L 10.6289 7.54404L 11.1132 7.54404L 15.9252 7.54404L 12.0312 10.4819L 11.6332 10.7826L 11.7862 11.2716L 13.2829 16.05L 9.39122 13.0809L 8.99988 12.7827L 8.60855 13.0809L 4.71589 16.05L 6.21288 11.2716Z"/>
</defs>
</svg>
