<svg width="192" height="31" viewBox="0 0 192 31" version="1.1" xmlns="http://www.w3.org/2000/svg" xmlns:xlink="http://www.w3.org/1999/xlink">
<title>Group</title>
<desc>Created using Figma</desc>
<g id="Canvas" transform="translate(-5022 -3436)">
<g id="Group">
<g id="Vector">
<use xlink:href="#path0_fill" transform="translate(5022 3436.68)"/>
</g>
<g id="Vector">
<use xlink:href="#path1_fill" transform="translate(5051.98 3436.68)"/>
</g>
<g id="Vector">
<use xlink:href="#path2_fill" transform="translate(5082.39 3436.68)"/>
</g>
<g id="Vector">
<use xlink:href="#path3_fill" transform="translate(5123.9 3436.68)"/>
</g>
<g id="Vector">
<use xlink:href="#path4_fill" transform="translate(5150.36 3436.68)"/>
</g>
<g id="Vector">
<use xlink:href="#path5_fill" transform="translate(5160.35 3436)"/>
</g>
<g id="Vector">
<use xlink:href="#path6_fill" transform="translate(5187.85 3436.68)"/>
</g>
</g>
</g>
<defs>
<path id="path0_fill" d="M 16.6574 5.87408L 16.6574 29.6357L 9.5349 29.6357L 9.5349 5.87408L 0 5.87408L 0 -1.80708e-08L 26.154 -1.80708e-08L 26.154 5.87408L 16.6574 5.87408Z"/>
<path id="path1_fill" d="M 26.5752 29.6357L 19.4144 29.6357L 19.4144 17.5086L 7.16075 17.5086L 7.16075 29.6357L 1.1686e-06 29.6357L 1.1686e-06 -1.80708e-08L 7.16075 -1.80708e-08L 7.16075 11.7482L 19.4144 11.7482L 19.4144 -1.80708e-08L 26.5369 -1.80708e-08L 26.5369 29.6357L 26.5752 29.6357Z"/>
<path id="path2_fill" d="M 21.5971 11.7861L 21.5971 17.0917L 7.16075 17.0917L 7.16075 23.989L 22.363 23.989L 22.363 29.6357L -1.1686e-06 29.6357L -1.1686e-06 -1.80708e-08L 22.363 -1.80708e-08L 22.363 5.49511L 7.16075 5.49511L 7.16075 11.824L 21.5971 11.824L 21.5971 11.7861Z"/>
<path id="path3_fill" d="M 2.33721e-06 -1.80708e-08L 7.16074 -1.80708e-08L 7.16074 23.7995L 22.631 23.7995L 22.631 29.6357L 2.33721e-06 29.6357L 2.33721e-06 -1.80708e-08Z"/>
<path id="path4_fill" d="M 4.67441e-06 -1.80708e-08L 7.12245 -1.80708e-08L 7.12245 29.6357L 4.67441e-06 29.6357L 4.67441e-06 -1.80708e-08Z"/>
<path id="path5_fill" d="M 16.7339 12.6577L 11.9091 11.4829C 9.68807 10.9523 8.0032 10.3081 8.0032 8.489C 8.0032 6.59413 9.84125 5.19193 12.7898 5.19193C 15.8915 5.19193 17.8061 6.55623 18.4188 9.05746L 25.3881 9.05746C 24.2776 3.18337 19.6825 0 13.0195 0C 6.20343 0 0.957315 3.10758 0.957315 8.90587C 0.957315 14.8936 5.51416 16.2958 9.72637 17.3949L 14.3215 18.5697C 17.3083 19.3276 19.0315 19.934 19.0315 22.2078C 19.0315 24.4438 16.7722 25.7323 13.7471 25.7323C 10.5305 25.7323 7.81173 24.4438 7.16075 21.1467L -4.67441e-06 21.1467C 0.765851 27.6271 6.31831 31 13.6322 31C 20.4866 31 26.2688 28.2335 26.2688 21.9425C 26.3071 15.0452 21.3674 13.8325 16.7339 12.6577Z"/>
<path id="path6_fill" d="M 16.6957 5.87408L 16.6957 29.6357L 9.5349 29.6357L 9.5349 5.87408L 2.33721e-06 5.87408L 2.33721e-06 -1.80708e-08L 26.154 -1.80708e-08L 26.154 5.87408L 16.6957 5.87408Z"/>
</defs>
</svg>
