<svg width="18" height="19" viewBox="0 0 18 19" version="1.1" xmlns="http://www.w3.org/2000/svg" xmlns:xlink="http://www.w3.org/1999/xlink">
<title>tl_icon_account_line</title>
<desc>Created using Figma</desc>
<g id="Canvas" transform="translate(-6269 -3399)">
<rect x="6269" y="3399" width="18" height="19" fill="#E5E5E5"/>
<clipPath id="clip-0" clip-rule="evenodd">
<path d="M 4979 3352L 6419 3352L 6419 4216L 4979 4216L 4979 3352Z" fill="#FFFFFF"/>
</clipPath>
<g id="TL_PAGE_PRODUCT_DT" clip-path="url(#clip-0)">
<path d="M 4979 3352L 6419 3352L 6419 4216L 4979 4216L 4979 3352Z" fill="#FFFFFF"/>
<g id="Group">
<g id="Group">
<g id="Group">
<g id="tl_icon_account_line">
<mask id="mask0_outline" mask-type="alpha">
<g id="Clip 2">
<use xlink:href="#path0_fill" transform="translate(6269 3399.7)" fill="#FFFFFF"/>
</g>
</mask>
<g id="Fill 1" mask="url(#mask0_outline)">
<use xlink:href="#path1_fill" transform="translate(6269 3399.7)"/>
</g>
</g>
</g>
</g>
</g>
</g>
</g>
<defs>
<path id="path0_fill" fill-rule="evenodd" d="M 18 0L 0 0L 0 17.8927L 18 17.8927L 18 0Z"/>
<path id="path1_fill" fill-rule="evenodd" d="M 3.24023 14.8103C 4.08474 14.4677 5.76851 13.8705 6.87439 13.5458C 7.51752 13.3442 7.51752 12.8059 7.51752 12.3731C 7.51752 12.0145 7.49277 11.4863 7.28164 11.039C 7.13689 10.7329 6.97114 10.2081 6.93476 9.79694C 6.92652 9.70076 6.88114 9.61204 6.80801 9.54867C 6.70151 9.45623 6.48551 9.11776 6.34789 8.43485C 6.23876 7.89434 6.28488 7.7758 6.32951 7.66174C 6.34864 7.6129 6.36701 7.56482 6.38164 7.51039C 6.47164 7.18348 6.37151 6.10842 6.26238 5.512C 6.21476 5.25292 6.27476 4.51634 6.76264 3.89606C 7.19989 3.34027 7.86177 3.0305 8.70628 2.97682L 9.41766 2.97607C 10.2847 3.0305 10.9469 3.34027 11.3849 3.89606C 11.8728 4.51634 11.9321 5.25292 11.8844 5.51237C 11.7761 6.10842 11.6748 7.18348 11.7648 7.51039C 11.7802 7.56482 11.7978 7.6129 11.8169 7.66174C 11.8616 7.7758 11.9077 7.89434 11.7993 8.43485C 11.6617 9.11776 11.4449 9.45623 11.3388 9.54867C 11.2661 9.61204 11.2207 9.70076 11.2121 9.79694C 11.1761 10.2081 11.0107 10.7329 10.8655 11.039C 10.6994 11.3905 10.5082 11.8583 10.5082 12.3578C 10.5082 12.7906 10.5082 13.3289 11.1577 13.5324C 12.2163 13.8433 13.9079 14.4211 14.8016 14.7704C 13.3098 16.2387 11.2597 17.1475 8.99991 17.1475C 6.76114 17.1475 4.72862 16.2547 3.24023 14.8103ZM 9.00007 0.745117C 13.5492 0.745117 17.2501 4.42394 17.2501 8.94596C 17.2501 10.9354 16.5331 12.7612 15.3429 14.1829C 14.5205 13.8415 12.5787 13.1716 11.3768 12.819C 11.2745 12.7869 11.2583 12.7817 11.2583 12.3575C 11.2583 12.0075 11.4035 11.6548 11.5448 11.3563C 11.6978 11.032 11.8793 10.4866 11.9446 9.99715C 12.1268 9.78691 12.3751 9.37203 12.5348 8.58102C 12.6747 7.88357 12.6095 7.63009 12.5165 7.3919C 12.5071 7.36692 12.497 7.34195 12.4895 7.31734C 12.4542 7.1537 12.5026 6.30454 12.623 5.64586C 12.7055 5.1937 12.6016 4.23234 11.9753 3.43686C 11.5797 2.934 10.8233 2.31707 9.44107 2.23096L 8.68319 2.23171C 7.32456 2.31707 6.56705 2.934 6.17142 3.43686C 5.54517 4.23234 5.44129 5.1937 5.52417 5.64549C 5.64492 6.30454 5.69254 7.1537 5.65804 7.31399C 5.65092 7.34195 5.64042 7.36692 5.63029 7.3919C 5.53804 7.63009 5.47204 7.88357 5.61267 8.58102C 5.77167 9.37203 6.01992 9.78691 6.20292 9.99715C 6.26742 10.4866 6.4493 11.032 6.60305 11.3563C 6.71518 11.5937 6.76768 11.9165 6.76768 12.3728C 6.76768 12.797 6.75155 12.8022 6.65555 12.8324C 5.41279 13.197 3.43465 13.9078 2.69702 14.2288C 1.48313 12.8007 0.75 10.9574 0.75 8.94596C 0.75 4.42394 4.45128 0.745117 9.00007 0.745117ZM 9.00008 0C 4.02941 0 0 4.00499 0 8.94637C 0 13.8877 4.02941 17.8931 9.00008 17.8931C 13.9711 17.8931 18.0002 13.8877 18.0002 8.94637C 18.0002 4.00499 13.9711 0 9.00008 0Z"/>
</defs>
</svg>
